<svg class="w-[64px] h-[64px]" viewBox="0 0 64 64" fill="none" xmlns="http://www.w3.org/2000/svg">
  <path fill-rule="evenodd" clip-rule="evenodd" d="M16.5 14.0488C16.5 6.28985 22.7456 0 30.45 0C38.1544 0 44.4 6.28985 44.4 14.0488C44.4 17.1039 43.4317 19.9313 41.7872 22.2365C45.2735 25.0989 47.5 29.4583 47.5 34.3415C47.5 42.9625 40.5604 49.9512 32 49.9512H25.8V54.6342C25.8 59.8068 21.6362 64 16.5 64V49.9512V40.5854V35.9024V28.0976V18.7317V14.0488ZM25.8 18.7317H30.45C33.0181 18.7317 35.1 16.6351 35.1 14.0488C35.1 11.4625 33.0181 9.36585 30.45 9.36585C27.8819 9.36585 25.8 11.4625 25.8 14.0488V18.7317ZM32 28.0976H25.8V40.5854H32C35.4242 40.5854 38.2 37.7899 38.2 34.3415C38.2 30.8931 35.4242 28.0976 32 28.0976Z" fill="current"/>
</svg>
